<?xml version="1.0" encoding="iso-8859-1"?>
<!-- Generator: Adobe Illustrator 17.1.0, SVG Export Plug-In . SVG Version: 6.00 Build 0)  -->
<!DOCTYPE svg PUBLIC "-//W3C//DTD SVG 1.1//EN" "http://www.w3.org/Graphics/SVG/1.1/DTD/svg11.dtd">
<svg version="1.1" id="Capa_1" xmlns="http://www.w3.org/2000/svg" xmlns:xlink="http://www.w3.org/1999/xlink" x="0px" y="0px"
	 viewBox="0 0 233.884 233.884" style="enable-background:new 0 0 233.884 233.884;" xml:space="preserve">
<path style="fill:#000002;" d="M211.384,7.83H22.5C10.093,7.83,0,17.923,0,30.33v140.795c0,12.407,10.093,22.5,22.5,22.5h57.461
	v17.429H54.664c-4.142,0-7.5,3.358-7.5,7.5c0,4.142,3.358,7.5,7.5,7.5h25.297h73.961h25.297c4.142,0,7.5-3.358,7.5-7.5
	c0-4.142-3.358-7.5-7.5-7.5h-25.297v-17.429h57.462c12.407,0,22.5-10.093,22.5-22.5V30.33C233.884,17.923,223.79,7.83,211.384,7.83z
	 M22.5,22.83h188.884c4.136,0,7.5,3.364,7.5,7.5v111.13H15V30.33C15,26.194,18.364,22.83,22.5,22.83z M138.922,211.054H94.961
	v-17.429h43.961V211.054z M211.384,178.625H22.5c-4.136,0-7.5-3.365-7.5-7.5V156.46h203.884v14.665
	C218.884,175.261,215.52,178.625,211.384,178.625z"/>
<g>
</g>
<g>
</g>
<g>
</g>
<g>
</g>
<g>
</g>
<g>
</g>
<g>
</g>
<g>
</g>
<g>
</g>
<g>
</g>
<g>
</g>
<g>
</g>
<g>
</g>
<g>
</g>
<g>
</g>
</svg>
