<?xml version="1.0" standalone="no"?>
<!DOCTYPE svg PUBLIC "-//W3C//DTD SVG 20010904//EN"
 "http://www.w3.org/TR/2001/REC-SVG-20010904/DTD/svg10.dtd">
<svg version="1.0" xmlns="http://www.w3.org/2000/svg"
 width="1600.000000pt" height="1600.000000pt" viewBox="0 0 1600.000000 1600.000000"
 preserveAspectRatio="xMidYMid meet">

<g transform="translate(0.000000,1600.000000) scale(0.100000,-0.100000)"
fill="#2a63ff" stroke="none">
<path d="M7878 15350 c-162 -15 -335 -63 -471 -131 -146 -74 -5492 -3082
-5567 -3133 -41 -28 -120 -96 -175 -151 -189 -189 -307 -411 -362 -682 -17
-84 -18 -245 -18 -3253 0 -3008 1 -3169 18 -3253 50 -249 159 -466 323 -645
64 -71 188 -173 269 -224 102 -64 5469 -3075 5535 -3106 367 -170 814 -166
1165 10 75 38 5370 3012 5482 3079 326 196 543 505 620 886 17 84 18 245 18
3253 0 3008 -1 3169 -18 3253 -55 271 -173 493 -362 682 -55 55 -134 123 -175
151 -75 51 -5421 3059 -5568 3133 -203 102 -479 152 -714 131z m591 -3534
c526 -70 1018 -235 1456 -489 298 -172 642 -446 866 -689 117 -126 259 -298
259 -312 -1 -6 -301 -184 -667 -396 -366 -212 -680 -393 -697 -403 l-31 -18
-85 82 c-583 568 -1404 778 -2184 559 -501 -141 -952 -471 -1245 -910 -249
-373 -374 -786 -374 -1240 0 -372 82 -709 250 -1030 337 -644 947 -1075 1678
-1185 133 -21 439 -23 570 -6 499 66 958 288 1304 631 l84 82 32 -18 c892
-514 1364 -791 1365 -800 1 -32 -300 -365 -462 -511 -583 -528 -1275 -856
-2043 -967 -200 -29 -382 -39 -638 -33 -277 6 -411 20 -672 72 -1512 301
-2719 1521 -3009 3040 -52 276 -61 378 -61 725 0 355 9 453 66 747 255 1307
1201 2410 2461 2867 312 113 669 190 1018 220 118 10 641 -2 759 -18z m3371
-2536 l0 -320 320 0 320 0 0 320 0 320 320 0 320 0 0 -320 0 -320 320 0 320 0
0 -320 0 -320 -320 0 -320 0 0 -320 0 -320 320 0 320 0 0 -320 0 -320 -320 0
-320 0 0 -320 0 -320 -320 0 -320 0 0 320 0 320 -320 0 -320 0 0 -320 0 -320
-320 0 -320 0 0 320 0 320 -320 0 -320 0 0 320 0 320 320 0 320 0 0 320 0 320
-320 0 -320 0 0 320 0 320 320 0 320 0 0 320 0 320 320 0 320 0 0 -320z"/>
<path d="M11840 8000 l0 -320 320 0 320 0 0 320 0 320 -320 0 -320 0 0 -320z"/>
</g>
</svg>
