<?xml version="1.0" encoding="UTF-8" standalone="no"?>
<svg
   xmlns:dc="http://purl.org/dc/elements/1.1/"
   xmlns:cc="http://creativecommons.org/ns#"
   xmlns:rdf="http://www.w3.org/1999/02/22-rdf-syntax-ns#"
   xmlns:svg="http://www.w3.org/2000/svg"
   xmlns="http://www.w3.org/2000/svg"
   xmlns:sodipodi="http://sodipodi.sourceforge.net/DTD/sodipodi-0.dtd"
   xmlns:inkscape="http://www.inkscape.org/namespaces/inkscape"
   aria-hidden="true"
   focusable="false"
   data-prefix="fab"
   data-icon="js-square"
   class="svg-inline--fa fa-js-square fa-w-14"
   role="img"
   viewBox="0 0 448 512"
   version="1.1"
   id="svg4"
   sodipodi:docname="ts-square-2.svg"
   inkscape:version="1.0 (4035a4fb49, 2020-05-01)">
  <metadata
     id="metadata10">
    <rdf:RDF>
      <cc:Work
         rdf:about="">
        <dc:format>image/svg+xml</dc:format>
        <dc:type
           rdf:resource="http://purl.org/dc/dcmitype/StillImage" />
        <dc:title />
      </cc:Work>
    </rdf:RDF>
  </metadata>
  <defs
     id="defs8" />
  <sodipodi:namedview
     inkscape:document-rotation="0"
     pagecolor="#ffffff"
     bordercolor="#666666"
     borderopacity="1"
     objecttolerance="10"
     gridtolerance="10"
     guidetolerance="10"
     inkscape:pageopacity="0"
     inkscape:pageshadow="2"
     inkscape:window-width="1718"
     inkscape:window-height="1351"
     id="namedview6"
     showgrid="false"
     inkscape:zoom="1.96875"
     inkscape:cx="204.72711"
     inkscape:cy="256"
     inkscape:window-x="1704"
     inkscape:window-y="0"
     inkscape:window-maximized="0"
     inkscape:current-layer="svg4" />
  <path
     style="opacity:1;fill:#2a63ff;fill-opacity:1"
     sodipodi:nodetypes="ssssssssssccssccssccssccssccccccccc"
     id="path2"
     d="M 48,32 C 21.5,32 0,53.5 0,80 v 352 c 0,26.5 21.5,48 48,48 h 352 c 26.5,0 48,-21.5 48,-48 V 80 C 448,53.5 426.5,32 400,32 Z m 293,203.30078 c 26.8,0 46.00078,9.29922 59.80078,33.69922 L 368,290 c -7.2,-12.9 -14.99961,-18 -27.09961,-18 -12.3,0 -20.09961,7.8 -20.09961,18 0,12.6 7.79844,17.69961 25.89844,25.59961 l 10.5,4.5 c 35.8,15.3 55.90039,31.00117 55.90039,66.20117 0,37.8 -29.79922,58.59961 -69.69922,58.59961 -39.1,0 -64.40117,-18.6 -76.70117,-43 L 301,382.09961 c 9,14.7 20.8,25.59961 41.5,25.59961 17.4,0 28.59961,-8.69883 28.59961,-20.79883 0,-14.4 -11.39922,-19.5 -30.69922,-28 l -10.5,-4.5 c -30.4,-12.9 -50.5,-29.2 -50.5,-63.5 0,-31.6 24.09961,-55.59961 61.59961,-55.59961 z m -238.00977,2.39844 h 152.81055 v 37.59375 H 200.92969 V 444.9375 H 156.70898 V 275.29297 h -53.71875 z" />
</svg>
